<?xml version="1.0" encoding="UTF-8" standalone="no"?>
<!-- Created with Inkscape (http://www.inkscape.org/) -->

<svg
   width="30mm"
   height="30mm"
   viewBox="0 0 30 30"
   version="1.1"
   id="svg1"
   sodipodi:docname="dustlogo.svg"
   inkscape:version="1.4.2 (ebf0e940, 2025-05-08)"
   inkscape:export-filename="dustlogo.svg"
   inkscape:export-xdpi="96"
   inkscape:export-ydpi="96"
   xml:space="preserve"
   xmlns:inkscape="http://www.inkscape.org/namespaces/inkscape"
   xmlns:sodipodi="http://sodipodi.sourceforge.net/DTD/sodipodi-0.dtd"
   xmlns="http://www.w3.org/2000/svg"
   xmlns:svg="http://www.w3.org/2000/svg"><sodipodi:namedview
     id="namedview1"
     pagecolor="#ffffff"
     bordercolor="#000000"
     borderopacity="0.25"
     inkscape:showpageshadow="2"
     inkscape:pageopacity="0.0"
     inkscape:pagecheckerboard="0"
     inkscape:deskcolor="#d1d1d1"
     inkscape:document-units="mm"
     showguides="true"
     inkscape:zoom="4.0718558"
     inkscape:cx="63.361772"
     inkscape:cy="56.485301"
     inkscape:window-width="1280"
     inkscape:window-height="675"
     inkscape:window-x="0"
     inkscape:window-y="25"
     inkscape:window-maximized="0"
     inkscape:current-layer="svg1" /><defs
     id="defs1"><inkscape:path-effect
       effect="fillet_chamfer"
       id="path-effect6"
       is_visible="true"
       lpeversion="1"
       nodesatellites_param="F,0,0,1,0,0,0,1 @ F,0,0,1,0,0,0,1 @ F,0,0,1,0,0,0,1 @ F,0,0,1,0,0,0,1 @ F,0,0,1,0,0,0,1 @ F,0,0,1,0,0,0,1 @ F,0,0,1,0,0,0,1 @ F,0,0,1,0,0,0,1"
       radius="0"
       unit="px"
       method="auto"
       mode="F"
       chamfer_steps="1"
       flexible="false"
       use_knot_distance="true"
       apply_no_radius="true"
       apply_with_radius="true"
       only_selected="false"
       hide_knots="false" /><rect
       x="27.751474"
       y="25.050003"
       width="64.098538"
       height="59.677949"
       id="rect5" /><rect
       x="-0.24558827"
       y="0"
       width="60.660301"
       height="60.414715"
       id="rect4" /><rect
       x="-0.34731427"
       y="0.17365713"
       width="60.779995"
       height="59.998539"
       id="rect3" /><rect
       x="0"
       y="-0.086828567"
       width="60.519508"
       height="60.432682"
       id="rect1" /></defs><path
     style="fill:#016630;fill-opacity:1;stroke-width:0.488024"
     id="rect2"
     width="30"
     height="30"
     x="0"
     y="0"
     inkscape:path-effect="#path-effect6"
     sodipodi:type="rect"
     d="M 2.7,0 H 27.3 C 28.7958,0 30,1.2042 30,2.7 V 27.3 C 30,28.7958 28.7958,30 27.3,30 H 2.7 C 1.2042,30 0,28.7958 0,27.3 V 2.7 C 0,1.2042 1.2042,0 2.7,0 Z"
     rx="2.7" /><text
     xml:space="preserve"
     transform="scale(0.26458333)"
     id="text5"
     style="font-style:normal;font-variant:normal;font-weight:normal;font-stretch:normal;font-size:53.3333px;line-height:0.9;font-family:'Javanese Text';-inkscape-font-specification:'Javanese Text, Normal';font-variant-ligatures:normal;font-variant-caps:normal;font-variant-numeric:normal;font-variant-east-asian:normal;text-align:center;letter-spacing:-3.46px;writing-mode:lr-tb;direction:ltr;white-space:pre;shape-inside:url(#rect5);display:inline;fill:#ffffff;fill-opacity:1"
     x="-34.270813"
     y="0" /><path
     d="m 17,11.185081 q 0,4.749998 -2.594178,7.148614 -2.594178,2.403866 -7.2431521,2.403866 H 2 V 2 H 7.7020549 Q 10.553082,2 12.633562,3.0497239 14.714041,4.0994458 15.85959,6.1306608 17,8.1671236 17,11.185081 m -3.44178,0.104979 q 0,-3.3591144 -1.500001,-4.9337002 -1.505137,-1.574592 -4.3561641,-1.574592 H 5.2876709 V 17.929551 h 1.97774 q 6.2928091,0 6.2928091,-6.639497 z"
     id="path1"
     style="fill:#ffffff;stroke-width:0.519249" /></svg>
