<?xml version="1.0" encoding="UTF-8" standalone="no"?>
<!-- Generator: Adobe Illustrator 22.0.1, SVG Export Plug-In . SVG Version: 6.00 Build 0)  -->

<svg
   version="1.1"
   id="Layer_1"
   x="0px"
   y="0px"
   viewBox="0 0 30 30"
   xml:space="preserve"
   sodipodi:docname="dustlogo.svg"
   style="enable-background:new 0 0 30 30;"
   inkscape:version="1.4.2 (ebf0e940, 2025-05-08)"
   xmlns:inkscape="http://www.inkscape.org/namespaces/inkscape"
   xmlns:sodipodi="http://sodipodi.sourceforge.net/DTD/sodipodi-0.dtd"
   xmlns="http://www.w3.org/2000/svg"
   xmlns:svg="http://www.w3.org/2000/svg"><defs
   id="defs1" /><sodipodi:namedview
   id="namedview1"
   pagecolor="#ffffff"
   bordercolor="#000000"
   borderopacity="0.25"
   inkscape:showpageshadow="2"
   inkscape:pageopacity="0.0"
   inkscape:pagecheckerboard="0"
   inkscape:deskcolor="#d1d1d1"
   inkscape:zoom="20.000574"
   inkscape:cx="14.824575"
   inkscape:cy="15.724549"
   inkscape:window-width="1280"
   inkscape:window-height="772"
   inkscape:window-x="0"
   inkscape:window-y="28"
   inkscape:window-maximized="0"
   inkscape:current-layer="Layer_1" />
<path
   d="M 0,18.055363 C 0,17.60586 0.15635204,17.254075 0.44951056,16.960905 0.76221349,16.667749 1.1726369,16.530953 1.7003282,16.530953 H 12.859946 c 0.527673,0 0.938079,0.136693 1.25079,0.429952 0.312707,0.29317 0.449494,0.644955 0.449494,1.094458 0,0.527704 -0.156307,0.957661 -0.449494,1.250831 -0.293165,0.293156 -0.723117,0.449498 -1.25079,0.449498 H 1.7003282 c -0.5276913,0 -0.93811471,-0.156311 -1.25081764,-0.449498 C 0.13680787,19.013024 0,18.602607 0,18.055363 Z M 0,6.504874 C 0,6.074909 0.15635204,5.703586 0.44951056,5.429964 0.76221349,5.136807 1.1726369,5 1.7003282,5 h 5.7850089 c 0.5276697,0 0.938135,0.136798 1.250805,0.429964 0.3127015,0.273622 0.4690725,0.644945 0.4690725,1.07491 0,0.527696 -0.1563281,0.938113 -0.4690725,1.250819 C 8.4234721,8.068408 8.0130068,8.22474 7.4853371,8.22474 H 1.7003282 C 1.1726369,8.22474 0.76221349,8.068428 0.44951056,7.775239 0.13680787,7.482071 0,7.03257 0,6.504874 Z m 1.9348519,17.33551 c 0,-0.429959 0.1758962,-0.820839 0.5472214,-1.172629 0.3517999,-0.351798 0.7622198,-0.547237 1.172656,-0.547237 0.5081369,0 0.8990088,0.176048 1.2117153,0.527703 0.3127016,0.351785 0.4690726,0.74266 0.4690726,1.192163 0,0.5277 -0.1563117,0.957662 -0.4495372,1.270363 -0.2931574,0.312703 -0.703576,0.4495 -1.2312507,0.4495 -0.449522,0 -0.8599507,-0.156312 -1.1921901,-0.469038 C 2.0912014,24.758962 1.9348519,24.348505 1.9348519,23.840384 Z M 4.7100951,12.250808 c 0,-0.449503 0.1368117,-0.859917 0.4299666,-1.192169 0.29317,-0.351787 0.6449586,-0.527708 1.0553771,-0.527708 0.5081571,0 0.938111,0.176067 1.2508239,0.527708 0.3127053,0.351788 0.469041,0.742666 0.469041,1.192169 0,0.527697 -0.1563117,0.957661 -0.4495031,1.270367 -0.3127054,0.312704 -0.7231202,0.449501 -1.2703618,0.449501 -0.4495018,0 -0.8012929,-0.156312 -1.0749125,-0.469049 C 4.8469068,13.188923 4.7100951,12.778505 4.7100951,12.250808 Z m 1.9348317,11.589576 c 0,-0.449503 0.1563117,-0.859959 0.4690889,-1.192163 0.3126991,-0.332264 0.7426555,-0.527703 1.2507873,-0.527703 h 7.48534 l 1.719873,1.719866 c 0,0.508121 -0.175858,0.918578 -0.527679,1.250825 -0.351787,0.332241 -0.742657,0.469038 -1.192194,0.469038 h -7.48534 c -0.5276671,0 -0.9576337,-0.156312 -1.2703377,-0.469038 C 6.7817625,24.778495 6.6449268,24.368084 6.6449268,23.840384 Z M 9.2247487,12.250808 c 0,-0.429964 0.1758772,-0.820833 0.5472529,-1.172624 0.3517864,-0.351796 0.7622044,-0.547253 1.1726154,-0.547253 h 7.485348 c 0.508121,0 0.918541,0.176067 1.231244,0.527708 0.312714,0.351788 0.469081,0.742666 0.469081,1.192169 0,0.527697 -0.156311,0.957661 -0.449537,1.270367 -0.312669,0.312704 -0.723121,0.449501 -1.250788,0.449501 h -7.485348 c -0.449504,0 -0.859947,-0.156312 -1.1921949,-0.469049 C 9.4006297,13.188923 9.2247487,12.778505 9.2247487,12.250808 Z M 10.710081,6.504874 c 0,-0.429965 0.156312,-0.801288 0.469083,-1.07491 C 11.491869,5.156353 11.902276,5 12.429956,5 h 11.159605 c 0.449514,0 0.840383,0.156338 1.192169,0.449504 0.351791,0.293165 0.527708,0.644954 0.527708,1.05537 0,0.50816 -0.176067,0.938113 -0.527708,1.250819 C 24.429944,8.068408 24.039075,8.22474 23.589561,8.22474 H 12.429956 c -0.52768,0 -0.957672,-0.156312 -1.27034,-0.469047 C 10.846917,7.442987 10.710081,7.03257 10.710081,6.504874 Z m 5.140062,11.550489 c 0,-0.410418 0.176066,-0.78175 0.527703,-1.074909 0.351788,-0.29317 0.742672,-0.449501 1.19217,-0.449501 0.449529,0 0.840411,0.156312 1.192198,0.449501 0.351791,0.293159 0.527668,0.664491 0.527668,1.074909 0,0.508161 -0.175915,0.918577 -0.527668,1.231282 -0.351787,0.312705 -0.742669,0.469047 -1.192198,0.469047 -0.449498,0 -0.859919,-0.156311 -1.19217,-0.469047 -0.351784,-0.293159 -0.527703,-0.703578 -0.527703,-1.231282 z m 3.009774,5.785021 c 0,-0.449503 0.156295,-0.859959 0.469051,-1.192163 0.312703,-0.351825 0.723157,-0.527703 1.23128,-0.527703 h 3.654732 c 0.508121,0 0.918541,0.176048 1.231247,0.508117 0.312711,0.332252 0.469083,0.742697 0.469083,1.211749 0,0.5277 -0.156311,0.957662 -0.449539,1.270363 -0.293165,0.312703 -0.723125,0.4495 -1.250791,0.4495 h -3.654732 c -0.527692,0 -0.938112,-0.156312 -1.25083,-0.4495 -0.293166,-0.312701 -0.449501,-0.742663 -0.449501,-1.270363 z m 1.700331,-5.785021 c 0,-0.410418 0.176048,-0.78175 0.527701,-1.074909 0.351791,-0.29317 0.742661,-0.449501 1.192165,-0.449501 h 6.000015 c 0.42996,0 0.781746,0.156312 1.055377,0.449501 0.273584,0.293159 0.429956,0.644954 0.429956,1.074909 0,0.527704 -0.136985,0.938123 -0.410418,1.250831 -0.273622,0.312703 -0.625409,0.449498 -1.074915,0.449498 h -6.000015 c -0.449504,0 -0.859922,-0.156311 -1.192165,-0.469047 -0.351797,-0.293159 -0.527701,-0.703578 -0.527701,-1.231282 z m 0.859944,-5.804555 c 0,-0.429964 0.175878,-0.820833 0.547214,-1.172624 0.351793,-0.351796 0.762207,-0.547253 1.172652,-0.547253 h 3.830617 c 0.410415,0 0.762205,0.176067 1.055373,0.527708 0.293167,0.351788 0.449499,0.742666 0.449499,1.192169 0,0.527697 -0.136782,0.938115 -0.429953,1.250819 -0.27363,0.312706 -0.64495,0.469049 -1.074919,0.469049 h -3.830617 c -0.449525,0 -0.859944,-0.156312 -1.192197,-0.469049 -0.351786,-0.312704 -0.527669,-0.723122 -0.527669,-1.250819 z m 5.355026,-5.745934 c 0,-0.429965 0.136986,-0.781753 0.429967,-1.07491 C 27.498341,5.136807 27.850141,5 28.280129,5 28.807802,5 29.21821,5.136798 29.530927,5.429964 29.843629,5.703586 30,6.074909 30,6.504874 30,7.03257 29.843688,7.442987 29.530927,7.755693 29.21821,8.068408 28.807802,8.22474 28.280129,8.22474 27.830594,8.22474 27.478807,8.068428 27.205185,7.755693 26.912053,7.442987 26.775218,7.03257 26.775218,6.504874 Z"
   id="path1"
   style="stroke-width:1.9545;fill:#ffffff" />
</svg>
